<svg width="32" height="32" viewBox="0 0 32 32" fill="none" xmlns="http://www.w3.org/2000/svg">
<path fill-rule="evenodd" clip-rule="evenodd" d="M2.24341 29.9405L15.3571 20.0744L23.2502 29.9495H19.1579H15.5432L2.24341 29.9405ZM17.7436 18.4428L18.5593 17.627C20.4366 15.8595 21.2735 13.7982 21.4146 11.1006C21.5207 9.07271 20.613 6.27146 19.5791 4.77817C19.1555 4.16633 17.9101 2.4079 16.5199 2L31.0003 2V29.9495H26.9213L17.7436 18.4428Z" fill="#2563EB"/>
<path d="M9.50684 2.00488C14.7516 2.00505 19.0029 5.86421 19.0029 10.624C19.0029 10.8397 18.9947 11.0539 18.9775 11.2656L18.9307 11.6934C18.5958 14.1483 17.1862 16.1971 15.0039 17.6523L0 28.918V10.6572H0.00976562C0.00971319 10.6461 0.00977448 10.6351 0.00976562 10.624C0.00976562 5.86411 4.26189 2.00488 9.50684 2.00488ZM9.79883 6.42383C7.48395 6.42403 5.60749 8.1267 5.60742 10.2275C5.60742 12.3284 7.48391 14.032 9.79883 14.0322C12.1139 14.0322 13.9912 12.3286 13.9912 10.2275C13.9911 8.12658 12.1139 6.42383 9.79883 6.42383Z" fill="#2563EB"/>
</svg>
